<?xml version="1.0" standalone="no"?>
<!DOCTYPE svg PUBLIC "-//W3C//DTD SVG 20010904//EN"
 "http://www.w3.org/TR/2001/REC-SVG-20010904/DTD/svg10.dtd">
<svg version="1.0" xmlns="http://www.w3.org/2000/svg"
 width="1920.000000pt" height="1920.000000pt" viewBox="0 0 1920.000000 1920.000000"
 preserveAspectRatio="xMidYMid meet">
<metadata>
Created by potrace 1.14, written by Peter Selinger 2001-2017
</metadata>
<g transform="translate(0.000000,1920.000000) scale(0.100000,-0.100000)"
fill="#000000" stroke="none">
<path d="M11607 19193 c-1 -1 -398 -4 -882 -7 -484 -4 -1188 -9 -1565 -11
-377 -3 -946 -8 -1265 -10 -319 -2 -591 -5 -605 -5 -14 -1 24 -18 85 -39 340
-118 615 -263 898 -474 67 -51 129 -98 137 -105 163 -140 385 -362 497 -497
42 -49 85 -101 97 -115 153 -179 477 -673 646 -985 18 -33 43 -78 55 -100 12
-22 40 -71 61 -110 21 -38 47 -88 59 -110 12 -22 39 -71 60 -110 38 -71 75
-138 125 -230 15 -27 45 -81 65 -120 80 -147 101 -186 222 -410 69 -126 168
-309 221 -405 52 -96 105 -193 117 -215 12 -22 44 -80 70 -130 27 -49 59 -108
72 -130 12 -22 26 -47 30 -55 3 -8 27 -53 53 -100 26 -47 66 -121 90 -165 24
-44 51 -94 61 -111 10 -18 41 -76 70 -130 29 -55 63 -117 76 -139 78 -141 153
-283 153 -292 0 -4 -63 -48 -140 -98 -77 -49 -207 -133 -288 -185 -81 -53
-207 -134 -280 -180 -72 -47 -163 -105 -202 -130 -38 -25 -119 -76 -180 -115
-60 -38 -110 -73 -110 -77 0 -5 132 -8 293 -9 160 0 468 -2 682 -4 760 -7
2818 -26 3170 -28 l230 -2 127 210 c71 116 134 220 140 233 18 32 406 671 449
740 20 31 108 176 196 322 88 146 243 401 344 567 101 167 189 311 194 320 16
30 56 95 80 133 28 43 654 1077 669 1105 7 11 24 39 39 62 15 24 27 45 27 47
0 3 14 26 31 51 17 25 29 48 27 51 -3 2 -25 -6 -49 -19 -41 -22 -151 -80 -399
-209 -58 -30 -168 -88 -245 -128 -77 -40 -171 -89 -210 -110 -38 -21 -151 -79
-250 -130 -99 -51 -185 -97 -192 -102 -7 -5 -16 -7 -21 -4 -6 3 -47 74 -92
158 -46 84 -95 176 -110 203 -15 28 -71 131 -125 230 -54 99 -110 203 -125
230 -54 98 -137 251 -180 330 -46 86 -50 94 -188 345 -49 91 -120 224 -157
295 -57 109 -148 262 -185 308 -372 469 -869 782 -1405 884 -78 14 -167 17
-678 17 -324 1 -589 0 -590 -1z"/>
<path d="M6537 19005 c-1 -2 -33 -5 -72 -9 -72 -6 -111 -12 -155 -22 -14 -3
-35 -8 -48 -10 -12 -3 -59 -16 -105 -30 -200 -63 -411 -183 -594 -338 -71 -60
-111 -115 -293 -401 -54 -85 -576 -888 -872 -1343 -51 -78 -104 -161 -118
-183 -24 -38 -163 -252 -376 -579 -55 -85 -150 -231 -211 -325 -60 -93 -145
-224 -188 -290 -43 -66 -98 -151 -123 -190 -24 -38 -58 -89 -74 -113 -17 -24
-29 -45 -27 -47 5 -4 510 -305 513 -305 2 0 63 -36 137 -81 74 -45 152 -91
174 -104 22 -12 148 -87 280 -165 132 -79 249 -148 260 -154 11 -6 110 -65
220 -130 483 -287 622 -369 805 -478 463 -274 757 -448 930 -551 102 -60 201
-119 220 -129 19 -11 47 -29 62 -39 14 -11 28 -19 31 -19 5 0 161 -92 382
-226 91 -55 123 -69 132 -61 6 7 85 131 174 277 88 146 175 288 193 315 17 28
36 59 43 70 39 65 215 351 255 415 27 41 51 82 55 91 5 8 33 55 64 105 105
167 214 343 229 371 9 16 23 39 32 53 9 14 157 255 328 535 284 464 350 570
388 630 6 11 15 27 19 35 4 8 11 20 15 25 13 16 58 86 58 90 0 2 40 68 88 147
49 79 126 202 170 275 45 73 82 139 82 146 0 18 -152 318 -233 459 -34 60 -69
122 -78 138 -32 59 -183 295 -191 298 -4 2 -8 8 -8 12 0 5 -14 29 -30 52 -17
24 -53 77 -82 118 -57 83 -189 257 -252 335 -23 27 -50 61 -61 74 -129 158
-432 469 -569 586 -130 111 -449 345 -469 345 -3 0 -34 17 -68 38 -77 46 -273
142 -292 142 -7 0 -17 4 -23 9 -22 21 -240 85 -374 110 -100 18 -340 36 -353
26z"/>
<path d="M17145 12865 c-82 -50 -226 -138 -320 -195 -163 -99 -191 -116 -280
-172 -22 -14 -92 -56 -155 -95 -238 -145 -358 -218 -465 -284 -114 -69 -901
-550 -1263 -770 -114 -70 -261 -159 -327 -199 -66 -40 -199 -121 -295 -180
-363 -223 -756 -463 -790 -482 -61 -35 -61 -35 -36 -81 49 -89 85 -155 126
-232 23 -44 53 -98 65 -120 12 -22 43 -80 70 -130 82 -154 116 -217 175 -325
75 -138 119 -219 165 -305 21 -38 66 -122 100 -185 57 -106 84 -155 183 -340
19 -36 74 -137 122 -225 48 -88 105 -194 127 -235 22 -41 134 -248 248 -460
115 -212 223 -412 240 -445 18 -33 46 -85 62 -115 39 -72 183 -339 236 -438
23 -42 47 -86 54 -97 11 -19 23 -20 385 -20 327 0 553 7 653 20 17 3 55 7 85
10 88 8 221 25 253 31 10 2 51 8 90 14 104 15 134 20 212 37 39 8 81 17 95 19
14 2 39 7 55 11 17 4 35 8 40 9 6 1 57 14 115 29 734 186 1327 515 1649 915
29 36 59 73 67 83 23 29 97 146 130 207 59 108 137 329 151 425 2 17 6 36 8
43 19 55 26 354 12 502 -5 46 -10 87 -12 90 -2 3 -6 23 -9 45 -4 22 -9 56 -13
75 -3 19 -32 85 -63 145 -32 61 -153 299 -270 530 -117 231 -282 557 -368 725
-85 168 -233 460 -329 650 -97 190 -246 485 -333 655 -87 171 -228 450 -315
620 -86 171 -162 315 -168 321 -9 9 -49 -11 -162 -81z"/>
<path d="M3386 12903 c-1 -1 -301 -4 -666 -7 -366 -4 -955 -9 -1310 -12 -355
-3 -792 -7 -972 -8 -181 0 -328 -2 -328 -2 0 -3 220 -177 430 -339 113 -88
210 -164 217 -170 14 -12 22 -18 83 -65 25 -19 52 -40 60 -47 8 -7 71 -56 140
-109 69 -54 176 -138 237 -187 l113 -89 -76 -146 c-82 -158 -155 -297 -239
-457 -29 -55 -85 -163 -125 -240 -40 -77 -89 -171 -110 -210 -20 -38 -70 -133
-110 -210 -40 -77 -99 -189 -130 -250 -32 -60 -87 -166 -123 -235 -35 -69 -87
-168 -114 -220 -281 -535 -291 -558 -333 -745 -25 -112 -34 -321 -18 -440 36
-277 181 -604 382 -860 17 -22 38 -49 46 -59 79 -101 242 -268 368 -378 94
-80 285 -228 296 -228 3 0 24 -13 48 -29 135 -91 392 -208 563 -256 70 -20
246 -66 270 -71 11 -2 40 -8 65 -14 58 -13 259 -47 330 -55 30 -4 66 -8 80
-10 14 -2 59 -6 100 -10 41 -4 86 -8 100 -10 26 -4 156 -13 270 -20 218 -13
562 -19 870 -16 l85 1 160 262 c88 143 195 318 237 387 42 69 103 168 135 220
32 52 69 114 83 137 14 23 66 108 115 188 50 81 97 159 106 174 9 15 90 146
179 292 89 146 186 303 214 350 381 624 461 753 472 757 7 2 47 -15 91 -40 43
-24 119 -65 168 -92 50 -26 167 -89 260 -140 94 -51 211 -114 260 -140 50 -26
95 -51 100 -55 6 -4 60 -33 120 -65 162 -85 238 -127 253 -138 27 -21 20 4
-26 89 -65 120 -125 232 -310 574 -19 36 -47 88 -62 115 -15 28 -45 81 -65
120 -21 38 -96 178 -167 310 -72 132 -147 272 -168 310 -20 39 -54 102 -75
140 -21 39 -67 124 -103 190 -35 66 -79 147 -97 180 -87 161 -182 337 -218
405 -22 41 -47 89 -57 105 -10 17 -39 71 -65 120 -26 50 -60 113 -75 140 -60
111 -160 295 -200 370 -35 66 -160 296 -335 620 -18 33 -54 101 -80 150 -27
50 -58 108 -71 130 l-22 40 -627 0 c-345 0 -627 -1 -629 -2z"/>
<path d="M12220 7793 c-18 -32 -56 -101 -85 -153 -29 -52 -61 -111 -72 -130
-11 -19 -36 -64 -55 -100 -19 -36 -45 -81 -57 -100 -11 -19 -24 -42 -28 -50
-7 -16 -174 -319 -210 -380 -11 -19 -36 -64 -55 -100 -19 -36 -47 -85 -60
-110 -38 -67 -270 -487 -305 -550 -17 -30 -86 -156 -155 -280 -69 -124 -137
-245 -150 -270 -61 -110 -154 -277 -165 -295 -7 -11 -15 -27 -19 -35 -4 -8
-39 -71 -77 -140 -39 -69 -80 -143 -92 -165 -12 -22 -37 -67 -55 -100 -18 -33
-42 -76 -52 -95 -10 -19 -23 -42 -28 -50 -8 -12 -287 -516 -380 -685 l-27 -50
159 -290 c88 -159 176 -321 197 -360 21 -38 49 -90 63 -115 14 -25 39 -70 55
-100 29 -53 125 -229 183 -335 15 -27 64 -117 109 -200 45 -82 85 -157 91
-165 5 -8 26 -46 46 -85 20 -38 40 -74 44 -80 4 -5 26 -45 49 -88 22 -42 60
-112 82 -155 23 -42 45 -81 49 -87 4 -5 27 -46 50 -90 24 -44 120 -219 213
-390 93 -170 185 -339 204 -375 20 -36 55 -100 79 -142 24 -43 44 -79 44 -82
0 -2 23 -43 50 -91 28 -48 50 -88 50 -90 0 -1 31 -59 69 -128 38 -69 86 -156
106 -194 98 -181 167 -304 170 -301 2 2 6 104 10 228 3 124 8 270 10 325 2 55
7 179 10 275 16 515 25 734 30 739 4 3 1626 4 2105 1 69 0 134 2 145 4 11 2
49 7 85 11 132 13 416 93 554 154 23 10 63 28 90 40 78 34 273 147 362 209
130 91 218 167 324 277 168 176 216 250 445 680 26 50 62 117 80 150 36 67
174 326 243 455 24 47 57 108 72 135 15 28 49 91 75 140 26 50 62 117 80 150
18 33 54 101 80 150 27 50 58 108 70 130 12 22 43 79 69 128 25 48 66 124 90
170 24 45 59 111 78 147 19 36 52 97 73 135 21 39 57 106 80 150 24 44 74 139
113 210 38 72 90 168 114 215 25 47 98 184 163 305 64 121 134 252 155 290 20
39 53 99 72 135 19 36 57 106 83 155 56 105 95 179 195 365 94 175 137 256
192 360 25 47 62 117 83 155 98 182 138 259 129 251 -115 -107 -201 -183 -249
-223 -345 -284 -777 -504 -1250 -636 -94 -27 -328 -80 -405 -93 -25 -4 -47 -8
-50 -9 -8 -2 -94 -16 -120 -20 -14 -2 -50 -7 -80 -10 -30 -3 -62 -7 -70 -10
-8 -2 -50 -6 -92 -10 -42 -3 -85 -7 -95 -9 -16 -3 -107 -10 -323 -23 -142 -8
-3732 -8 -3737 0 -7 11 -9 42 -18 202 -3 72 -8 157 -10 190 -2 33 -6 112 -9
175 -4 63 -9 147 -11 185 -3 39 -7 122 -10 185 -15 301 -27 515 -30 518 -1 2
-17 -23 -35 -55z"/>
<path d="M325 7455 c15 -27 46 -84 68 -125 38 -72 70 -132 134 -250 17 -30 47
-86 68 -125 21 -38 93 -171 160 -295 67 -124 143 -265 170 -315 26 -49 67
-124 90 -165 23 -41 63 -115 89 -165 26 -49 52 -97 56 -105 10 -16 80 -144
150 -275 51 -94 350 -648 390 -720 15 -27 46 -86 70 -130 24 -44 69 -127 100
-185 98 -181 124 -229 260 -480 73 -135 151 -279 173 -320 22 -41 57 -106 79
-143 21 -38 38 -70 38 -72 0 -3 31 -60 68 -127 37 -68 76 -139 86 -158 9 -19
29 -55 43 -80 13 -25 45 -83 70 -130 80 -149 115 -212 176 -325 106 -194 114
-209 152 -280 46 -87 143 -198 279 -320 77 -69 231 -171 366 -241 186 -98 370
-167 605 -225 44 -11 89 -23 100 -26 11 -2 34 -6 50 -9 17 -2 50 -8 75 -14 59
-13 160 -30 207 -35 21 -2 54 -6 73 -9 19 -2 71 -8 115 -11 44 -4 94 -9 110
-11 148 -14 491 -17 1953 -18 1488 -1 1685 1 1691 14 7 17 8 4797 0 4804 -4 5
-631 11 -2114 21 -324 2 -986 7 -1470 11 -484 3 -1242 7 -1685 9 -443 1 -826
5 -852 9 -27 3 -67 8 -90 11 -109 12 -139 16 -228 31 -705 118 -1305 426
-1798 924 -99 100 -103 103 -77 55z"/>
</g>
</svg>
